<svg width="1132" height="222" xmlns="http://www.w3.org/2000/svg"><defs><linearGradient id="c" x1="100%" y1="0%" x2="0%" y2="30%"><stop offset="20%" stop-color="#fec878"/><stop offset="40%" stop-color="#f88343"/></linearGradient><linearGradient id="d" x1="100%" y1="0%" x2="0%" y2="30%"><stop offset="20%" stop-color="#fec878"/><stop offset="40%" stop-color="#f1713a"/></linearGradient><linearGradient id="e" x1="0%" y1="0%" x2="0%" y2="100%"><stop offset="20%" stop-color="#fec878"/><stop offset="40%" stop-color="#f89b48"/></linearGradient><linearGradient id="f" x1="0%" y1="0%" x2="0%" y2="100%"><stop offset="20%" stop-color="#fec878"/><stop offset="40%" stop-color="#f58944"/></linearGradient><radialGradient id="a" cx="50%" cy="50%" r="90%" fx="70%" fy="0%"><stop offset="0%" stop-color="#f9a641"/><stop offset="40%" stop-color="#f8974a"/><stop offset="90%" stop-color="#ed5c31"/></radialGradient><filter id="b" x="-20%" y="-20%" width="140%" height="140%"><feGaussianBlur in="SourceAlpha" stdDeviation="4" result="blurMap"/><feSpecularLighting in="blurMap" surfaceScale="12" specularConstant=".6" specularExponent="18" lighting-color="#ffaa43" result="specularOut"><fePointLight x="200" y="-50" z="200"/></feSpecularLighting><feComposite in="specularOut" in2="SourceAlpha" operator="in" result="specularOnTop"/><feComposite in="specularOnTop" in2="SourceGraphic" operator="arithmetic" k2="1" k3="1"/></filter></defs><g transform="translate(-26 -4)" stroke="#af6128" stroke-width="4"><g fill="url(#a)" stroke-linejoin="round" filter="url(#b)"><path d="M35 60V30q0-18 21-18h58q46 0 46 50 0 41-31 52l32 55h-35l-29-52H63v39H35v-46q0-21 24-21h54q19 0 19-26 0-24-21-24H63v21Z"/></g><rect x="29" y="60" width="40" height="15" rx="4" fill="url(#c)"/><rect x="29" y="156" width="40" height="15" rx="4" fill="url(#d)"/><rect x="72" y="7" width="15" height="38" rx="4" fill="url(#e)"/><rect x="72" y="84" width="15" height="38" rx="4" fill="url(#f)"/></g><path d="M356.092 53.308h39.794V166.63h-39.794v-16.16q-5.05 7.676-13.938 12.423t-20.402 4.747q-19.796 0-31.209-13.029T279.13 119.16V53.308h39.39v60.802q0 9.696 5.151 15.251t13.635 5.555q8.686 0 13.736-5.555t5.05-15.251zm179.174 47.268v66.054h-39.592v-60.802q0-9.696-5.05-15.251t-13.534-5.555q-8.888 0-13.938 5.555t-5.05 15.251v60.802H418.51V53.308h39.592v16.16q5.252-7.676 14.14-12.423t20.402-4.747q19.594 0 31.108 13.029t11.514 35.249m389.456 50.298v69.892H885.13V53.308h39.592v15.756q4.646-7.878 13.13-12.524t19.998-4.646q13.534 0 24.543 7.07t17.372 20.2 6.363 30.704-6.363 30.805-17.372 20.301-24.543 7.07q-11.514 0-19.897-4.646t-13.231-12.524M632.024 68.862V17.15h39.794v149.48h-39.794v-15.756q-4.646 7.878-13.13 12.524t-19.998 4.646q-13.534 0-24.543-7.07t-17.372-20.301-6.363-30.805 6.363-30.704 17.473-20.2 24.644-7.07q10.908 0 19.493 4.545t13.433 12.423m498.132 49.086h-74.942q.606 9.292 5.151 13.837t11.615 4.545q9.898 0 14.14-8.888h42.218q-2.626 11.716-10.201 20.907t-19.089 14.443-25.452 5.252q-16.766 0-29.795-7.07t-20.402-20.2-7.373-30.906 7.272-30.805 20.301-20.099 29.997-7.07q16.766 0 29.694 6.868t20.2 19.695 7.272 30.199q0 4.646-.606 9.292m-376.528.606h-19.594v48.076h-39.592V24.22h59.186q17.17 0 29.189 6.06t18.079 16.766 6.06 24.644q0 12.928-5.959 23.533t-17.978 16.968-29.391 6.363m-549.44 49.49q-16.968 0-30.401-7.07t-21.109-20.2-7.676-30.906q0-17.574 7.777-30.704t21.21-20.2 30.401-7.07 30.401 7.07 21.21 20.2 7.777 30.704-7.777 30.805-21.311 20.301-30.502 7.07M822.914 53.308h39.592V166.63h-39.592zm-190.688 56.56q0 11.11-5.959 17.372t-14.645 6.262q-8.888 0-14.746-6.363t-5.858-17.271q0-11.11 5.858-17.271t14.746-6.161q8.686 0 14.645 6.262t5.959 17.17m333.704 0q0 10.908-5.959 17.271t-14.645 6.363-14.645-6.262-5.959-17.372q0-10.908 5.959-17.17t14.645-6.262 14.645 6.161 5.959 17.271M842.912 42.804q-10.504 0-16.867-5.757t-6.363-14.443q0-8.888 6.363-14.746T842.912 2q10.302 0 16.665 5.858t6.363 14.746q0 8.686-6.363 14.443t-16.665 5.757m-638.724 90.9q-8.282 0-13.534-6.06t-5.252-17.776q0-11.514 5.454-17.574t13.534-6.06 13.635 6.06 5.555 17.574-5.555 17.675-13.837 6.161M749.79 56.136q16.766 0 16.766 15.554 0 15.352-16.766 15.352h-15.756V56.136zm305.626 42.622q1.414-7.676 6.06-11.615t11.918-3.939 12.12 4.141 4.848 11.413z" fill-rule="evenodd" fill="#aaa"/></svg>