<svg width="170" height="170" xmlns="http://www.w3.org/2000/svg"><defs><linearGradient id="c" x1="100%" y1="0%" x2="0%" y2="30%"><stop offset="20%" stop-color="#fec878"/><stop offset="40%" stop-color="#f88343"/></linearGradient><linearGradient id="d" x1="100%" y1="0%" x2="0%" y2="30%"><stop offset="20%" stop-color="#fec878"/><stop offset="40%" stop-color="#f1713a"/></linearGradient><linearGradient id="e" x1="0%" y1="0%" x2="0%" y2="100%"><stop offset="20%" stop-color="#fec878"/><stop offset="40%" stop-color="#f89b48"/></linearGradient><linearGradient id="f" x1="0%" y1="0%" x2="0%" y2="100%"><stop offset="20%" stop-color="#fec878"/><stop offset="40%" stop-color="#f58944"/></linearGradient><radialGradient id="a" cx="50%" cy="50%" r="90%" fx="70%" fy="0%"><stop offset="0%" stop-color="#f9a641"/><stop offset="40%" stop-color="#f8974a"/><stop offset="90%" stop-color="#ed5c31"/></radialGradient><filter id="b" x="-20%" y="-20%" width="140%" height="140%"><feGaussianBlur in="SourceAlpha" stdDeviation="4" result="blurMap"/><feSpecularLighting in="blurMap" surfaceScale="12" specularConstant=".6" specularExponent="18" lighting-color="#ffaa43" result="specularOut"><fePointLight x="200" y="-50" z="200"/></feSpecularLighting><feComposite in="specularOut" in2="SourceAlpha" operator="in" result="specularOnTop"/><feComposite in="specularOnTop" in2="SourceGraphic" operator="arithmetic" k2="1" k3="1"/></filter></defs><g transform="translate(-10 -4)" stroke="#af6128" stroke-width="4"><g fill="url(#a)" stroke-linejoin="round" filter="url(#b)"><path d="M35 60V30q0-18 21-18h58q46 0 46 50 0 41-31 52l32 55h-35l-29-52H63v39H35v-46q0-21 24-21h54q19 0 19-26 0-24-21-24H63v21Z"/></g><rect x="29" y="60" width="40" height="15" rx="4" fill="url(#c)"/><rect x="29" y="156" width="40" height="15" rx="4" fill="url(#d)"/><rect x="72" y="7" width="15" height="38" rx="4" fill="url(#e)"/><rect x="72" y="84" width="15" height="38" rx="4" fill="url(#f)"/></g></svg>